<?xml version="1.0" encoding="UTF-8"?>
<svg width="22px" height="20px" viewBox="0 0 22 20" version="1.1" xmlns="http://www.w3.org/2000/svg" xmlns:xlink="http://www.w3.org/1999/xlink">
    <!-- Generator: Sketch 50.2 (55047) - http://www.bohemiancoding.com/sketch -->
    <title>profile_act</title>
    <desc>Created with Sketch.</desc>
    <defs></defs>
    <g id="Test-Components" stroke="none" stroke-width="1" fill="none" fill-rule="evenodd">
        <g id="profile_act" transform="translate(-1.000000, -2.000000)">
            <rect id="Rectangle-7-Copy-2" fill="#D8D8D8" opacity="0" x="0" y="0" width="24" height="24"></rect>
            <g id="noun_profile_956160" transform="translate(1.000000, 2.869565)" fill="#FFB719" fill-rule="nonzero">
                <g id="Group">
                    <path d="M10.8578143,11.4007051 C13.9858989,11.4007051 16.5452409,8.8413631 16.5452409,5.7132785 C16.5452409,2.58519389 13.9858989,0.0258519389 10.8578143,0.0258519389 C7.72972973,0.0258519389 5.17038778,2.58519389 5.17038778,5.7132785 C5.17038778,8.8413631 7.72972973,11.4007051 10.8578143,11.4007051 Z" id="Shape"></path>
                    <path d="M0.0258519389,18.5875441 C0.0258519389,18.8719154 0.258519389,19.1045828 0.542890717,19.1045828 L21.146886,19.1045828 C21.4312573,19.1045828 21.6639248,18.8719154 21.6639248,18.5875441 C21.6639248,15.0199765 19.0011751,11.9435958 15.4594595,11.4782609 C15.3301998,11.4524089 15.2009401,11.5041128 15.0716804,11.5816686 C13.8824912,12.4606345 12.4089307,12.9518214 10.8578143,12.9518214 C9.306698,12.9518214 7.83313749,12.4606345 6.61809636,11.5558167 C6.5146886,11.4782609 6.38542891,11.4524089 6.23031727,11.4524089 C2.68860165,11.9435958 0.0258519389,15.0199765 0.0258519389,18.5875441 Z" id="Shape"></path>
                </g>
            </g>
        </g>
    </g>
</svg>