<?xml version="1.0" encoding="UTF-8"?>
<svg width="42px" height="46px" viewBox="0 0 42 46" version="1.1" xmlns="http://www.w3.org/2000/svg" xmlns:xlink="http://www.w3.org/1999/xlink">
    <!-- Generator: Sketch 50.2 (55047) - http://www.bohemiancoding.com/sketch -->
    <title>specialoffers</title>
    <desc>Created with Sketch.</desc>
    <defs></defs>
    <g id="Test-Components" stroke="none" stroke-width="1" fill="none" fill-rule="evenodd">
        <g id="specialoffers" fill-rule="nonzero">
            <path d="M24.9802188,1.06148598 L38.0197811,8.55451183 C40.4827489,9.96982647 42,12.5854358 42,15.4160651 L42,30.4021168 C42,33.232746 40.4827489,35.8483554 38.0197811,37.2636701 L24.9802188,44.7566957 C22.5172508,46.1720105 19.4827491,46.1720105 17.019781,44.7566957 L3.9802189,37.2636701 C1.51725087,35.8483554 1.18266654e-14,33.232746 1.02840568e-14,30.4021168 L0,15.4160651 C-1.54260852e-15,12.5854358 1.51725087,9.96982647 3.9802189,8.55451183 L17.019781,1.06148598 C19.4827491,-0.353828659 22.5172508,-0.353828659 24.9802188,1.06148598 Z" id="Mask-Copy-2" fill="#FFB71B"></path>
            <g id="Group-6" transform="translate(9.000000, 11.000000)" fill="#FFFFFF">
                <g id="Group">
                    <path d="M12.5508901,11.1877283 L12.5508901,23.8823277 L20.7668262,23.8823277 C21.796466,23.8823277 22.6358779,23.0441619 22.6358779,22.013276 L22.6358779,11.1877283 L12.5508901,11.1877283 Z" id="Shape"></path>
                    <path d="M11.5399408,11.1877283 L1.45412225,11.1877283 L1.45412225,22.013276 C1.45412225,23.0441619 2.29228812,23.8823277 3.32317399,23.8823277 L11.5399408,23.8823277 L11.5399408,11.1877283 Z" id="Shape"></path>
                    <path d="M23.2588951,5.19181038 L19.5207917,5.19181038 C19.9124619,4.67096796 20.1438089,4.02386072 20.1438089,3.32275864 C20.1438089,1.60613846 18.7470043,0.207672415 17.0287227,0.207672415 C15.2959041,0.207672415 13.8438585,1.58038708 13.1332035,2.3977857 C12.7008296,2.89329209 12.3299266,3.42410278 12.0454154,3.93746899 C11.7592428,3.42410278 11.3883399,2.89412278 10.9576273,2.3977857 C10.2453109,1.58163311 8.79243471,0.207672415 7.06127746,0.207672415 C5.34382659,0.207672415 3.94619123,1.60613846 3.94619123,3.32275864 C3.94619123,4.02386072 4.17836899,4.67096796 4.57003917,5.19181038 L0.831105005,5.19181038 C0.486368796,5.19181038 0.20808776,5.47258348 0.20808776,5.81482762 L0.20808776,9.55293109 C0.20808776,9.8976673 0.486368796,10.1759483 0.831105005,10.1759483 L23.2588951,10.1759483 C23.60197,10.1759483 23.8819124,9.8976673 23.8819124,9.55293109 L23.8819124,5.81482762 C23.8819124,5.47258348 23.60197,5.19181038 23.2588951,5.19181038 Z M7.06127746,5.19181038 C6.03039159,5.19181038 5.19222572,4.35364451 5.19222572,3.32275864 C5.19222572,2.29270346 6.03039159,1.45370691 7.06127746,1.45370691 C7.96506781,1.45370691 9.04288764,2.09624536 10.0181173,3.21559968 C10.6174599,3.90590278 11.054818,4.64189382 11.2699666,5.19181038 L7.06127746,5.19181038 Z M17.0287227,5.19181038 L12.8200335,5.19181038 C13.0360128,4.64189382 13.4712942,3.90590278 14.0727135,3.21559968 C15.0454511,2.09624536 16.1236863,1.45370691 17.0287227,1.45370691 C18.0583625,1.45370691 18.8977744,2.29270346 18.8977744,3.32275864 C18.8977744,4.35364451 18.0583625,5.19181038 17.0287227,5.19181038 Z" id="Shape"></path>
                </g>
            </g>
        </g>
    </g>
</svg>